<?xml version="1.0" encoding="UTF-8"?>
<svg width="20px" height="22px" viewBox="0 0 20 22" version="1.1" xmlns="http://www.w3.org/2000/svg" xmlns:xlink="http://www.w3.org/1999/xlink">
    <title>删除</title>
    <g id="页面-1" stroke="none" stroke-width="1" fill="none" fill-rule="evenodd">
        <g id="画板" transform="translate(-395.000000, -398.000000)" fill="#3F3F3F" fill-rule="nonzero">
            <g id="删除" transform="translate(395.150000, 398.150000)">
                <path d="M10.0045882,0 C11.5287788,0 12.92339,0.862170969 13.6056749,2.22539786 L14.8455572,4.70516256 L13.325031,5.46542567 L12.0852985,2.98596049 C11.691152,2.19844337 10.8848911,1.7 10.0045882,1.7 L9.69541176,1.7 C8.81510886,1.7 8.00884801,2.19844337 7.61485135,2.98566097 L6.37496899,5.46542567 L4.85444277,4.70516256 L6.09447496,2.22509833 C6.77661003,0.862170969 8.17122122,0 9.69541176,0 L10.0045882,0 Z" id="Stroke-1"></path>
                <path d="M18.85,4.23529412 C19.319442,4.23529412 19.7,4.61585208 19.7,5.08529412 C19.7,5.55473616 19.319442,5.93529412 18.85,5.93529412 L0.85,5.93529412 C0.380557963,5.93529412 0,5.55473616 0,5.08529412 C0,4.61585208 0.380557963,4.23529412 0.85,4.23529412 L18.85,4.23529412 Z" id="Stroke-3"></path>
                <path d="M3.28823529,5.08529412 L3.28823529,17.7911765 C3.28823529,19.076205 4.32967733,20.1176471 5.61470588,20.1176471 L14.0852941,20.1176471 C15.3703227,20.1176471 16.4117647,19.076205 16.4117647,17.7911765 L16.4117647,5.08529412 L18.1117647,5.08529412 L18.1117647,17.7911765 C18.1117647,20.0150891 16.3092067,21.8176471 14.0852941,21.8176471 L5.61470588,21.8176471 C3.39079326,21.8176471 1.58823529,20.0150891 1.58823529,17.7911765 L1.58823529,5.08529412 L3.28823529,5.08529412 Z" id="Stroke-5"></path>
                <polygon id="Stroke-7" points="12.1764706 8.26176471 12.1764706 17.7911765 13.8764706 17.7911765 13.8764706 8.26176471"></polygon>
                <polygon id="Stroke-9" points="9 8.26176471 9 17.7911765 10.7 17.7911765 10.7 8.26176471"></polygon>
                <polygon id="Stroke-11" points="5.82352941 8.26176471 5.82352941 17.7911765 7.52352941 17.7911765 7.52352941 8.26176471"></polygon>
            </g>
        </g>
    </g>
</svg>