<?xml version="1.0" encoding="UTF-8"?>
<svg width="16px" height="16px" viewBox="0 0 16 16" version="1.1" xmlns="http://www.w3.org/2000/svg" xmlns:xlink="http://www.w3.org/1999/xlink">
    <title>下载</title>
    <g id="页面-2" stroke="none" stroke-width="1" fill="none" fill-rule="evenodd">
        <g id="素材大图" transform="translate(-975.000000, -878.000000)" fill="#FFFFFF" fill-rule="nonzero">
            <g id="下载" transform="translate(975.000000, 878.000000)">
                <path d="M15.3130172,4.67982922 C14.8671911,4.22026015 14.0374783,4.5307275 13.5916522,4.99029657 L8.91327359,9.73965548 L8.91327359,1.1588827 C8.90341819,0.515907034 8.68579057,0 8.0623999,0 C7.43900922,0 7.08907662,0.515907034 7.07922121,1.1588827 L7.07922121,9.73965548 L2.53314756,4.99029657 C2.0873215,4.5307275 1.44102959,4.17418503 0.91899852,4.67982922 C0.39696745,5.1854734 0.473309774,5.71055127 0.91899852,6.17042451 L7.2115262,12.661455 C7.42536475,12.8825786 7.71581769,13.0066725 8.01860073,13.0063991 C8.03329558,13.0063991 8.04770506,13.0048001 8.06239991,13.0042114 C8.07709475,13.0048001 8.09150424,13.0063991 8.10619906,13.0063991 C8.40898836,13.0067051 8.69945294,12.8826062 8.91327359,12.661455 L15.2058013,6.17042451 C15.65149,5.71055127 15.758706,5.13970245 15.3130172,4.67982922 Z" id="路径"></path>
                <path d="M14.858618,16 L1.12337084,16 C0.500058319,15.9898334 0,15.6044661 0,14.9614103 C0,14.3183545 0.500200988,13.9899963 1.12351351,13.9798297 L14.858618,13.9798297 C15.2663818,13.9798034 15.6431846,14.2041809 15.8470886,14.5684414 C16.0509925,14.932702 16.0509484,15.1857352 15.8470886,15.5500221 C15.6432288,15.9143089 15.2663818,15.9999737 14.858618,16 Z" id="路径"></path>
            </g>
        </g>
    </g>
</svg>