<?xml version="1.0" encoding="UTF-8"?>
<svg width="11px" height="12px" viewBox="0 0 11 12" version="1.1" xmlns="http://www.w3.org/2000/svg" xmlns:xlink="http://www.w3.org/1999/xlink">
    <title>bianji</title>
    <defs>
        <polygon id="path-1" points="0 0 11 0 11 12 0 12"></polygon>
    </defs>
    <g id="页面-2" stroke="none" stroke-width="1" fill="none" fill-rule="evenodd">
        <g id="设计管理-我的素材" transform="translate(-868.000000, -241.000000)">
            <g id="编组-6" transform="translate(844.000000, 193.856884)">
                <g id="bianji" transform="translate(24.000000, 47.143116)">
                    <mask id="mask-2" fill="white">
                        <use xlink:href="#path-1"></use>
                    </mask>
                    <g id="Clip-2"></g>
                    <path d="M6.24196489,0.140926884 C6.43334862,-0.0509012974 6.73544064,-0.046313538 6.92149657,0.151139635 L9.56679736,2.95809038 C9.66123785,3.05822322 9.71218377,3.19487861 9.70744373,3.33576271 C9.70277953,3.47662687 9.64294131,3.60925301 9.54207333,3.70212522 L3.16805101,9.57551437 C3.0769475,9.65959005 2.95918603,9.70478945 2.83803069,9.70213653 L0.475179211,9.64899831 C0.21108332,9.6431539 -2.04231583e-08,9.41625928 -2.04231583e-08,9.13840064 L-2.04231583e-08,6.61381651 C-2.04231583e-08,6.47410926 0.0543587423,6.34048578 0.150505649,6.24408299 L6.24196489,0.140926884 Z M6.88609797,8.35096161 L10.5240004,8.42554262 C10.6974478,8.42905325 10.8558599,8.52970471 10.9396258,8.68943852 C11.0233917,8.84925212 11.0197703,9.0438928 10.9301457,9.20011598 C10.8405401,9.35633915 10.6784877,9.45038822 10.5050971,9.4467978 L6.86713783,9.37223674 C6.59909822,9.36661175 6.38608097,9.13341394 6.39150357,8.85142632 C6.39683137,8.56937885 6.61849445,8.34535657 6.88653406,8.35096161 L6.88609797,8.35096161 Z M6.56716934,1.22553304 L0.970740581,6.83237337 L0.970740581,8.63849444 L2.6696077,8.67675237 L8.5140731,3.29158059 L6.56716934,1.22553304 Z M10.5002244,10.9041494 C10.768245,10.902055 10.9872537,11.1289496 10.9892771,11.4109373 C10.9912543,11.6929847 10.7755826,11.9233102 10.5074861,11.9254246 L0.974665332,11.9999856 C0.706568849,12.00208 0.487636028,11.7751854 0.48561258,11.4932177 C0.483635437,11.2111503 0.699307112,10.9808248 0.967346715,10.9787304 L10.5002244,10.9041494 Z" id="Fill-1" fill="#3F3F3F" mask="url(#mask-2)"></path>
                </g>
            </g>
        </g>
    </g>
</svg>