<?xml version="1.0" encoding="UTF-8"?>
<svg width="18px" height="18px" viewBox="0 0 18 18" version="1.1" xmlns="http://www.w3.org/2000/svg" xmlns:xlink="http://www.w3.org/1999/xlink">
    <title>fangda备份</title>
    <g id="页面-2" stroke="none" stroke-width="1" fill="none" fill-rule="evenodd">
        <g id="素材大图" transform="translate(-812.000000, -877.000000)" fill="#FFFFFF">
            <g id="fangda备份" transform="translate(812.000000, 877.000000)">
                <path d="M17.7248319,16.4512793 L14.6046994,13.327955 C15.7700292,11.8763358 16.4042467,10.0697039 16.4023951,8.20772206 C16.4028639,4.88835155 14.4049346,1.89556838 11.3402807,0.625149444 C8.27562665,-0.645363304 4.74787834,0.0566880989 2.40221823,2.40375471 C0.0566518636,4.75091514 -0.644950785,8.28091985 0.624749846,11.347534 C1.89435672,14.4141482 4.88522689,16.4133553 8.20247566,16.4129097 C10.0697597,16.4151847 11.8811902,15.7758943 13.3339207,14.6020561 L16.452764,17.7229882 C16.621309,17.8970587 16.8521296,17.9966414 17.0942943,17.999929 C17.336459,18.0029504 17.5698343,17.9094186 17.7428795,17.7397573 C18.0926261,17.3786936 18.0845633,16.8024458 17.7248319,16.4512793 Z M1.8027129,8.20891818 C1.8027129,4.67213547 4.66795367,1.80506205 8.20247566,1.80506205 C11.7369976,1.80506205 14.6023322,4.67213547 14.6023322,8.20891818 C14.6023322,11.7460527 11.7367164,14.6135014 8.20193658,14.6135014 C4.66703958,14.6135014 1.80151754,11.7460527 1.80151754,8.20891818 L1.8027129,8.20891818 Z" id="Fill-1"></path>
                <path d="M11.1677981,7.41882305 L8.99213607,7.41882305 L7.41288556,7.42001917 L5.23844237,7.42001917 C4.79595034,7.41471872 4.43256263,7.76860573 4.42597647,8.21138078 C4.42597647,8.64848013 4.79081734,9.00027979 5.23844237,9.00027979 L7.41288556,9.00027979 L8.99213607,9.00027979 L11.1666027,9.00027979 C11.608626,9.00560369 11.9718262,8.65242029 11.9790686,8.21020811 C11.9731153,7.76759723 11.6101026,7.4135226 11.1677981,7.41882305 Z" id="Fill-3"></path>
            </g>
        </g>
    </g>
</svg>